<?xml version="1.0" standalone="no"?>
<!DOCTYPE svg PUBLIC "-//W3C//DTD SVG 20010904//EN"
 "http://www.w3.org/TR/2001/REC-SVG-20010904/DTD/svg10.dtd">
<svg version="1.0" xmlns="http://www.w3.org/2000/svg"
 width="300.000000pt" height="300.000000pt" viewBox="0 0 300.000000 300.000000"
 preserveAspectRatio="xMidYMid meet">
<metadata>
Created by potrace 1.11, written by Peter Selinger 2001-2013
</metadata>
<g transform="translate(0.000000,300.000000) scale(0.100000,-0.100000)"
fill="#000000" stroke="none">
<path d="M916 2845 c-21 -55 11 -194 63 -276 35 -56 74 -87 166 -130 78 -37
161 -112 193 -175 l20 -40 -20 -13 c-15 -9 -17 -16 -9 -24 6 -6 11 -46 11 -94
0 -68 -3 -83 -15 -83 -9 0 -28 -6 -43 -14 -23 -12 -31 -12 -52 0 -35 19 -96
17 -127 -3 -25 -17 -27 -17 -41 5 -8 12 -25 22 -38 22 -31 0 -30 -7 4 -43 39
-41 37 -114 -4 -194 -28 -55 -30 -61 -17 -89 12 -25 34 -37 153 -84 95 -37
134 -57 124 -63 -8 -5 -14 -23 -14 -45 0 -41 7 -56 31 -64 30 -11 39 -84 52
-438 10 -303 10 -357 -2 -366 -20 -15 -17 -65 5 -81 19 -14 19 -15 0 -28 -24
-18 -26 -74 -4 -86 11 -6 20 -37 29 -94 8 -59 19 -93 33 -110 12 -13 31 -38
44 -55 40 -51 85 -41 137 31 27 38 37 65 46 121 6 40 20 85 30 100 23 33 25
76 4 84 -8 4 -15 12 -15 19 0 7 7 15 15 19 20 7 20 60 0 80 -13 13 -13 55 0
381 9 231 19 374 26 388 7 12 23 32 36 44 26 25 30 68 8 93 -14 15 -4 21 121
70 114 45 138 58 151 83 14 28 13 33 -13 84 -34 69 -42 138 -20 182 10 18 24
35 32 38 22 8 17 23 -8 23 -12 0 -32 -9 -44 -21 -21 -20 -24 -20 -46 -5 -29
20 -92 21 -123 0 -22 -14 -26 -14 -47 0 -12 9 -31 16 -41 16 -17 0 -18 9 -16
110 3 94 6 113 22 128 25 23 53 79 68 135 32 130 -69 263 -229 298 -56 13 -72
8 -53 -15 7 -8 11 -27 9 -43 -4 -36 -38 -43 -69 -12 -18 18 -21 30 -17 70 3
28 13 58 23 69 18 19 17 20 -4 20 -59 0 -129 -63 -146 -132 -5 -21 -13 -28
-31 -28 -34 0 -97 34 -146 78 l-41 37 7 -30 c4 -16 9 -38 12 -47 4 -14 1 -16
-13 -11 -57 21 -98 70 -138 170 -16 38 -24 49 -29 38z m467 -159 c-7 -34 15
-93 40 -111 33 -23 93 -19 111 7 9 12 16 31 16 41 0 16 5 18 28 12 108 -26
181 -124 169 -225 -7 -61 -29 -104 -75 -152 -32 -34 -41 -38 -87 -38 l-52 0
29 58 c15 31 31 73 34 92 l7 35 -58 -63 c-50 -54 -132 -122 -149 -122 -3 0 -6
9 -6 19 0 11 14 28 33 39 17 12 45 34 61 51 l29 30 -48 -15 c-87 -26 -111 -20
-176 40 -32 30 -89 68 -126 86 -93 44 -128 72 -163 133 -38 67 -38 75 3 41 60
-50 127 -69 127 -35 0 19 3 18 45 -5 24 -14 69 -28 98 -31 l54 -6 5 47 c4 30
14 56 29 72 28 29 27 29 22 0z m267 -590 c0 -79 -1 -85 -26 -101 -23 -15 -27
-15 -49 -1 -31 20 -94 20 -123 0 -20 -14 -25 -14 -52 3 -29 17 -30 19 -30 100
l0 83 140 0 140 0 0 -84z m-445 -130 c19 -13 18 -15 -5 -60 -23 -42 -40 -58
-40 -37 0 4 -11 25 -25 46 -15 20 -25 38 -23 40 34 26 67 30 93 11z m170 2
c28 -13 31 -21 11 -37 -8 -6 -19 -25 -26 -41 -7 -17 -15 -30 -19 -30 -3 0 -17
21 -31 46 -23 45 -24 47 -5 60 23 17 36 17 70 2z m168 1 c12 -7 24 -13 26 -15
2 -1 -6 -15 -17 -31 -10 -15 -23 -39 -27 -52 -7 -25 -8 -24 -26 11 -10 20 -23
40 -29 43 -18 11 -11 35 13 45 30 12 35 12 60 -1z m190 -8 c5 -5 -4 -31 -20
-59 l-28 -50 -27 49 c-16 26 -28 51 -28 54 0 22 82 26 103 6z m171 -1 c9 -9 7
-16 -28 -74 -23 -37 -24 -38 -31 -15 -4 13 -17 37 -27 52 -11 16 -19 29 -17
31 31 25 80 28 103 6z m-614 -90 c21 -42 26 -80 10 -80 -5 0 -7 6 -4 14 7 19
-14 31 -30 17 -9 -7 -16 -7 -23 0 -14 14 -36 1 -29 -17 3 -8 1 -14 -4 -14 -15
0 -12 37 6 73 35 67 43 68 74 7z m179 -15 c23 -50 26 -65 11 -65 -5 0 -10 9
-10 20 0 22 -7 25 -30 10 -9 -5 -19 -5 -27 1 -16 14 -36 1 -29 -17 3 -8 0 -14
-6 -14 -15 0 -2 56 23 97 25 40 37 35 68 -32z m165 13 c28 -55 32 -78 16 -78
-5 0 -10 9 -10 20 0 22 -10 26 -28 8 -8 -8 -15 -8 -26 1 -18 15 -37 6 -29 -14
3 -8 0 -15 -6 -15 -6 0 -11 7 -11 15 0 28 45 115 60 115 5 0 20 -23 34 -52z
m173 1 c24 -47 29 -79 13 -79 -5 0 -7 6 -4 14 8 20 -14 30 -32 15 -11 -9 -18
-9 -26 -1 -18 18 -28 14 -28 -8 0 -11 -4 -20 -10 -20 -16 0 -12 23 16 78 14
29 31 51 37 49 6 -2 21 -23 34 -48z m132 -21 c9 -36 8 -37 -11 -27 -16 9 -20
7 -25 -10 -5 -21 -23 -30 -23 -12 0 17 42 106 46 96 1 -5 7 -27 13 -47z m-813
7 c16 -40 18 -65 4 -65 -5 0 -7 6 -4 14 8 20 -14 30 -33 14 -15 -11 -16 -11
-10 5 4 10 7 30 7 43 0 35 19 29 36 -11z m859 -145 c-4 -6 -173 -10 -476 -10
-306 0 -469 3 -469 10 0 7 165 10 476 10 314 0 473 -3 469 -10z m-669 -97 c35
-26 64 -49 64 -51 0 -4 4 -6 -87 48 -40 23 -73 44 -73 46 0 16 42 -3 96 -43z
m87 0 c20 -27 34 -50 31 -52 -2 -2 -28 19 -58 47 -48 46 -52 52 -31 52 16 0
34 -14 58 -47z m81 25 c19 -93 9 -103 -29 -28 l-25 50 25 0 c18 0 26 -6 29
-22z m106 18 c0 -2 -9 -24 -20 -50 -24 -53 -46 -62 -36 -15 3 17 6 40 6 50 0
14 7 19 25 19 14 0 25 -2 25 -4z m63 -48 c-29 -29 -55 -49 -59 -45 -12 12 66
97 89 97 18 0 14 -8 -30 -52z m142 39 c-44 -30 -143 -87 -150 -87 -4 0 23 23
61 50 38 28 78 50 89 50 19 0 19 0 0 -13z m-75 -152 l0 -25 -204 0 c-205 0
-225 3 -212 35 4 13 40 15 211 15 l205 0 0 -25z m-54 -81 c-3 -9 -6 -18 -6
-20 0 -2 -65 -4 -145 -4 -80 0 -145 2 -145 4 0 2 -3 11 -6 20 -5 14 12 16 151
16 139 0 156 -2 151 -16z m-253 -296 c9 -316 9 -478 -1 -478 -9 0 -17 135 -28
503 -6 180 -5 207 8 207 13 0 16 -36 21 -232z m57 192 c0 -22 -4 -40 -10 -40
-6 0 -10 -27 -10 -60 0 -33 4 -60 10 -60 6 0 10 -58 10 -155 0 -97 -4 -155
-10 -155 -6 0 -10 -27 -10 -60 0 -47 3 -60 15 -60 11 0 15 -11 15 -40 0 -33
-3 -40 -20 -40 -19 0 -20 7 -20 168 0 92 -3 251 -7 355 -6 187 -6 187 15 187
19 0 22 -6 22 -40z m60 0 c0 -33 -3 -40 -20 -40 -17 0 -20 7 -20 40 0 33 3 40
20 40 17 0 20 -7 20 -40z m63 -162 c-5 -356 -13 -508 -29 -508 -10 0 -14 12
-14 40 0 22 5 40 10 40 6 0 10 27 10 60 0 33 -4 60 -10 60 -6 0 -10 58 -10
155 0 97 4 155 10 155 14 0 13 117 -1 122 -19 6 -2 78 19 78 16 0 17 -17 15
-202z m53 65 c-3 -76 -8 -217 -11 -313 -7 -200 -12 -260 -25 -260 -9 0 -6 294
6 578 5 110 9 132 21 132 14 0 15 -18 9 -137z m-116 -218 c0 -123 -3 -155 -13
-155 -14 0 -27 120 -27 253 0 50 2 57 20 57 19 0 20 -7 20 -155z m0 -315 c0
-29 -4 -40 -15 -40 -11 0 -15 11 -15 40 0 29 4 40 15 40 11 0 15 -11 15 -40z
m125 -90 c-4 -6 -63 -10 -146 -10 -86 0 -139 4 -139 10 0 6 55 10 146 10 94 0
143 -4 139 -10z m-35 -50 c0 -6 -43 -10 -110 -10 -67 0 -110 4 -110 10 0 6 43
10 110 10 67 0 110 -4 110 -10z m40 -60 c0 -6 -55 -10 -145 -10 -90 0 -145 4
-145 10 0 6 55 10 145 10 90 0 145 -4 145 -10z m-43 -79 c-3 -15 -9 -51 -13
-80 l-7 -51 -83 0 -83 0 -6 33 c-3 17 -9 53 -14 80 l-8 47 110 0 110 0 -6 -29z
m-63 -184 c-10 -26 -40 -37 -63 -21 -33 23 -25 34 24 34 32 0 43 -4 39 -13z"/>
<path d="M1592 2583 c45 -88 50 -108 45 -172 -3 -40 -15 -89 -30 -124 -29 -64
-18 -66 40 -5 89 92 83 229 -11 287 -35 22 -50 26 -44 14z"/>
<path d="M2256 1420 c-102 -26 -219 -119 -266 -210 -111 -218 -22 -500 193
-609 57 -29 75 -33 148 -34 63 0 99 5 143 21 75 27 155 88 183 139 l22 40 -36
17 -37 18 -20 -29 c-60 -83 -139 -123 -241 -123 -148 0 -266 104 -305 269 -36
154 42 331 174 396 71 35 171 36 245 4 48 -20 112 -78 123 -110 4 -11 12 -10
41 6 20 11 37 22 37 26 0 10 -55 82 -81 106 -67 61 -226 97 -323 73z"/>
<path d="M280 979 l0 -430 38 3 37 3 3 340 2 340 66 -115 c36 -63 70 -126 76
-140 5 -14 41 -80 80 -148 64 -113 72 -123 96 -120 21 2 32 14 50 51 12 27 65
122 116 212 52 90 98 174 101 186 4 13 16 36 26 53 19 31 19 27 19 -317 l0
-348 43 3 42 3 3 428 2 428 -47 -3 c-47 -3 -49 -5 -73 -53 -14 -27 -69 -128
-123 -224 -54 -95 -107 -192 -117 -215 -41 -92 -38 -94 -128 65 -44 79 -84
153 -88 164 -4 11 -39 75 -77 143 l-69 122 -39 0 -39 0 0 -431z"/>
</g>
</svg>
